<svg width="13" height="13" viewBox="0 0 13 13" fill="none" xmlns="http://www.w3.org/2000/svg">
<path fill-rule="evenodd" clip-rule="evenodd" d="M6.79159 0.75C7.13677 0.75 7.41659 1.02982 7.41659 1.375V6.16667H12.2083C12.5535 6.16667 12.8333 6.44649 12.8333 6.79167C12.8333 7.13685 12.5535 7.41667 12.2083 7.41667H7.41659V12.2083C7.41659 12.5535 7.13677 12.8333 6.79159 12.8333C6.44642 12.8333 6.16659 12.5535 6.16659 12.2083V7.41667H1.375C1.02982 7.41667 0.75 7.13685 0.75 6.79167C0.75 6.44649 1.02982 6.16667 1.375 6.16667H6.16659V1.375C6.16659 1.02982 6.44642 0.75 6.79159 0.75Z" fill="#D5B65B"/>
</svg>
