<svg width="18" height="15" viewBox="0 0 18 15" fill="none" xmlns="http://www.w3.org/2000/svg">
<path d="M0.00516129 12.8094C0.00516129 12.0467 -0.158279 9.03671 2.21613 6.64868C3.8142 5.04153 6.20587 4.76277 9.06606 4.63565V0.75C9.06606 0.335786 9.40184 0 9.81606 0C10.0024 0 10.182 0.0693449 10.32 0.19453L16.8282 6.0989C17.1349 6.37722 17.158 6.85153 16.8797 7.15831C16.8651 7.17441 16.8498 7.18987 16.8338 7.20465L10.3257 13.2319C10.0218 13.5133 9.54723 13.4951 9.26578 13.1912C9.13739 13.0526 9.06606 12.8706 9.06606 12.6816V8.8197C7.25006 8.86964 5.9565 8.98515 4.78122 9.35905C3.09636 9.89506 1.7926 11.4115 0.869947 13.9084L0.869915 13.9084C0.761099 14.2029 0.480381 14.3984 0.166441 14.3984H0.000621796C0.000621796 13.9399 0.00516129 13.2135 0.00516129 12.8094Z" fill="#0D0D0D"/>
</svg>
